<svg xmlns="http://www.w3.org/2000/svg" xmlns:xlink="http://www.w3.org/1999/xlink" width="1016" zoomAndPan="magnify" viewBox="0 0 762 377.999986" height="504" preserveAspectRatio="xMidYMid meet" version="1.0"><defs><clipPath id="8c7419b8bf"><path d="M 0 79.472656 L 762 79.472656 L 762 378 L 0 378 Z M 0 79.472656 " clip-rule="nonzero"/></clipPath><clipPath id="61692cd9f4"><path d="M 381 79.472656 C 122.90625 79.472656 -86.320312 288.699219 -86.320312 546.792969 C -86.320312 804.886719 122.90625 1014.113281 381 1014.113281 C 639.09375 1014.113281 848.320312 804.886719 848.320312 546.792969 C 848.320312 288.699219 639.09375 79.472656 381 79.472656 Z M 381 79.472656 " clip-rule="nonzero"/></clipPath><clipPath id="23d3825a28"><path d="M 16.699219 170.464844 L 745.300781 170.464844 L 745.300781 378 L 16.699219 378 Z M 16.699219 170.464844 " clip-rule="nonzero"/></clipPath><clipPath id="5baa4a233d"><path d="M 381 170.464844 C 179.800781 170.464844 16.699219 333.566406 16.699219 534.765625 C 16.699219 735.960938 179.800781 899.066406 381 899.066406 C 582.199219 899.066406 745.300781 735.960938 745.300781 534.765625 C 745.300781 333.566406 582.199219 170.464844 381 170.464844 Z M 381 170.464844 " clip-rule="nonzero"/></clipPath></defs><rect x="-76.2" width="914.4" fill="#ffffff" y="-37.799999" height="453.599983" fill-opacity="1"/><rect x="-76.2" width="914.4" fill="#ff7c1e" y="-37.799999" height="453.599983" fill-opacity="1"/><g clip-path="url(#8c7419b8bf)"><g clip-path="url(#61692cd9f4)"><path fill="#ff8731" d="M -86.320312 79.472656 L 848.320312 79.472656 L 848.320312 1014.113281 L -86.320312 1014.113281 Z M -86.320312 79.472656 " fill-opacity="1" fill-rule="nonzero"/></g></g><g clip-path="url(#23d3825a28)"><g clip-path="url(#5baa4a233d)"><path fill="#ff964b" d="M 16.699219 170.464844 L 745.300781 170.464844 L 745.300781 899.066406 L 16.699219 899.066406 Z M 16.699219 170.464844 " fill-opacity="1" fill-rule="nonzero"/></g></g></svg>