<svg width="64" height="64" viewBox="0 0 64 64" fill="none" xmlns="http://www.w3.org/2000/svg">
<g clip-path="url(#clip0_189_2236)">
<path d="M50.6663 55.9997H13.333V58.6663C13.333 59.3736 13.0521 60.0519 12.552 60.552C12.0519 61.0521 11.3736 61.333 10.6663 61.333H7.99967C7.29243 61.333 6.61415 61.0521 6.11406 60.552C5.61396 60.0519 5.33301 59.3736 5.33301 58.6663V34.6663L11.7783 23.9223C12.2522 23.1326 12.9225 22.479 13.7239 22.0253C14.5254 21.5715 15.4307 21.333 16.3517 21.333H47.6477C48.5687 21.333 49.474 21.5715 50.2754 22.0253C51.0769 22.479 51.7472 23.1326 52.221 23.9223L58.6663 34.6663V58.6663C58.6663 59.3736 58.3854 60.0519 57.8853 60.552C57.3852 61.0521 56.7069 61.333 55.9997 61.333H53.333C52.6258 61.333 51.9475 61.0521 51.4474 60.552C50.9473 60.0519 50.6663 59.3736 50.6663 58.6663V55.9997ZM11.5517 34.6663H52.4477L47.6477 26.6663H16.3517L11.5517 34.6663ZM17.333 47.9997C18.3939 47.9997 19.4113 47.5782 20.1614 46.8281C20.9116 46.078 21.333 45.0605 21.333 43.9997C21.333 42.9388 20.9116 41.9214 20.1614 41.1712C19.4113 40.4211 18.3939 39.9997 17.333 39.9997C16.2721 39.9997 15.2547 40.4211 14.5046 41.1712C13.7544 41.9214 13.333 42.9388 13.333 43.9997C13.333 45.0605 13.7544 46.078 14.5046 46.8281C15.2547 47.5782 16.2721 47.9997 17.333 47.9997ZM46.6663 47.9997C47.7272 47.9997 48.7446 47.5782 49.4948 46.8281C50.2449 46.078 50.6663 45.0605 50.6663 43.9997C50.6663 42.9388 50.2449 41.9214 49.4948 41.1712C48.7446 40.4211 47.7272 39.9997 46.6663 39.9997C45.6055 39.9997 44.5881 40.4211 43.8379 41.1712C43.0878 41.9214 42.6663 42.9388 42.6663 43.9997C42.6663 45.0605 43.0878 46.078 43.8379 46.8281C44.5881 47.5782 45.6055 47.9997 46.6663 47.9997Z" fill="#FF7C1E"/>
<path d="M17.3324 6.34082L14.5057 9.17282L14.5031 9.16749C13.9435 9.72685 13.5624 10.4396 13.408 11.2155C13.2536 11.9915 13.3327 12.7958 13.6354 13.5268C13.9381 14.2578 14.4508 14.8826 15.1087 15.3221C15.7665 15.7617 16.5399 15.9963 17.3311 15.9963C18.1222 15.9963 18.8956 15.7617 19.5535 15.3221C20.2113 14.8826 20.724 14.2578 21.0267 13.5268C21.3294 12.7958 21.4085 11.9915 21.2541 11.2155C21.0997 10.4396 20.7186 9.72685 20.1591 9.16749L17.3324 6.34082Z" fill="#FFD6B9"/>
<path d="M31.9991 6.34082L29.1724 9.17282L29.1697 9.16749C28.6102 9.72685 28.2291 10.4396 28.0747 11.2155C27.9202 11.9915 27.9994 12.7958 28.3021 13.5268C28.6048 14.2578 29.1175 14.8826 29.7753 15.3221C30.4331 15.7617 31.2065 15.9963 31.9977 15.9963C32.7889 15.9963 33.5623 15.7617 34.2201 15.3221C34.878 14.8826 35.3906 14.2578 35.6934 13.5268C35.9961 12.7958 36.0752 11.9915 35.9208 11.2155C35.7663 10.4396 35.3853 9.72685 34.8257 9.16749L31.9991 6.34082Z" fill="#FFD6B9"/>
<path d="M46.6657 6.34349L43.8391 9.17282L43.8364 9.17015C43.2769 9.72952 42.8958 10.4422 42.7413 11.2182C42.5869 11.9942 42.666 12.7985 42.9688 13.5295C43.2715 14.2604 43.7842 14.8852 44.442 15.3248C45.0998 15.7644 45.8732 15.999 46.6644 15.999C47.4556 15.999 48.229 15.7644 48.8868 15.3248C49.5446 14.8852 50.0573 14.2604 50.36 13.5295C50.6627 12.7985 50.7419 11.9942 50.5874 11.2182C50.433 10.4422 50.0519 9.72952 49.4924 9.17015L46.6657 6.34349Z" fill="#FFD6B9"/>
<ellipse cx="17.3337" cy="43.9997" rx="6.66667" ry="6.66667" fill="#FFD6B9"/>
<circle cx="46.6667" cy="43.9997" r="6.66667" fill="#FFD6B9"/>
<path d="M48.0003 26.667H16.0003L10.667 34.667H53.3337L48.0003 26.667Z" fill="#FFD6B9"/>
</g>
<defs>
<clipPath id="clip0_189_2236">
<rect width="64" height="64" fill="white"/>
</clipPath>
</defs>
</svg>
