<svg width="64" height="64" viewBox="0 0 64 64" fill="none" xmlns="http://www.w3.org/2000/svg">
<rect x="2" y="12" width="60" height="44" rx="8" fill="#FF7C1E"/>
<path d="M57.9 38.1C56.6 36.7999 55.0566 35.7685 53.3579 35.0648C51.6593 34.3612 49.8387 33.999 48 33.999C46.1614 33.999 44.3408 34.3612 42.6421 35.0648C40.9435 35.7685 39.4001 36.7999 38.1 38.1C36.7999 39.4001 35.7685 40.9435 35.0648 42.6421C34.3612 44.3408 33.999 46.1614 33.999 48C33.999 49.8387 34.3612 51.6593 35.0648 53.3579C35.7685 55.0566 36.7999 56.6 38.1 57.9C39.4001 59.2002 40.9435 60.2316 42.6421 60.9352C44.3408 61.6389 46.1614 62.001 48 62.001C49.8387 62.001 51.6593 61.6389 53.3579 60.9352C55.0566 60.2316 56.6 59.2002 57.9 57.9C59.2002 56.6 60.2316 55.0566 60.9352 53.3579C61.6389 51.6593 62.001 49.8387 62.001 48C62.001 46.1614 61.6389 44.3408 60.9352 42.6421C60.2316 40.9435 59.2002 39.4001 57.9 38.1ZM44.0425 53.9175C41.2925 53.9175 39.5825 52.435 39.5825 50.1525H42.355C42.4025 50.9875 43.105 51.475 44.1825 51.475C45.1825 51.475 45.6475 51.065 45.6475 50.435C45.6475 49.915 45.3025 49.6325 44.23 49.435L42.53 49.12C40.655 48.7725 39.6 47.75 39.6 46.16C39.6 44.08 41.365 42.6475 43.9475 42.6475C46.53 42.6475 48.31 44.08 48.325 46.2525H45.5525C45.49 45.53 44.9225 45.0575 43.885 45.0575C42.9375 45.0575 42.42 45.45 42.42 46.0175C42.42 46.4275 42.7175 46.71 43.7725 46.9L45.475 47.215C47.4425 47.5775 48.4525 48.6325 48.4525 50.285C48.4525 52.405 46.8125 53.9175 44.0425 53.9175ZM51.27 55.24H48.5925L54.42 42.1025H57.0975L51.27 55.24Z" fill="#FFD6B9"/>
<rect x="2" y="22" width="60" height="8" fill="#FFD6B9"/>
</svg>
