<svg width="64" height="64" viewBox="0 0 64 64" fill="none" xmlns="http://www.w3.org/2000/svg">
<path d="M26.5726 5.80609C26.699 5.49228 26.8882 5.20852 27.1735 5.03376C27.8155 4.64063 29.2793 4 32.0003 4C34.7214 4 36.1851 4.64063 36.8271 5.03377C37.1125 5.20852 37.3015 5.49228 37.4281 5.80609C37.8645 6.88877 38.9363 9.6444 39.5697 12.1035C41.5906 12.9023 43.4597 14.0116 45.1203 15.3739C47.5283 14.7024 50.4101 14.2697 51.5494 14.1133C51.8793 14.0681 52.215 14.0931 52.5063 14.2575C53.1614 14.6275 54.4378 15.5988 55.7983 18C57.1589 20.4011 57.3462 22.0129 57.333 22.7761C57.3273 23.1153 57.1806 23.4241 56.9771 23.6925C56.2749 24.6195 54.4674 26.9447 52.6933 28.7335C52.8538 29.7984 52.9371 30.8893 52.9371 32C52.9371 33.1107 52.8538 34.2015 52.6933 35.2664C54.4674 37.0552 56.2749 39.3804 56.9771 40.3073C57.1806 40.5759 57.3273 40.8845 57.333 41.2237C57.3462 41.9869 57.1589 43.5988 55.7983 46C54.4378 48.4011 53.1614 49.3724 52.5063 49.7424C52.215 49.9068 51.8793 49.9317 51.5494 49.8865C50.4101 49.7301 47.5283 49.2976 45.1205 48.626C43.4598 49.9883 41.5907 51.0976 39.5697 51.8965C38.9363 54.3556 37.8645 57.1112 37.4281 58.1939C37.3015 58.5077 37.1125 58.7915 36.8271 58.9663C36.1851 59.3593 34.7214 60 32.0003 60C29.2793 60 27.8155 59.3593 27.1735 58.9663C26.8882 58.7915 26.699 58.5077 26.5726 58.1939C26.1362 57.1112 25.0643 54.3556 24.431 51.8965C22.4099 51.0976 20.5409 49.9883 18.8802 48.626C16.4723 49.2976 13.5906 49.7301 12.4513 49.8865C12.1213 49.9317 11.7856 49.9068 11.4944 49.7424C10.8392 49.3724 9.56293 48.4011 8.20238 46C6.84182 43.5988 6.65449 41.9869 6.66761 41.2237C6.67345 40.8845 6.82007 40.5759 7.02354 40.3073C7.72585 39.3804 9.5333 37.0552 11.3074 35.2664C11.1468 34.2015 11.0635 33.1107 11.0635 32C11.0635 30.8893 11.1468 29.7984 11.3074 28.7335C9.53331 26.9447 7.72585 24.6195 7.02354 23.6925C6.82007 23.4241 6.67345 23.1153 6.66761 22.7761C6.65449 22.0129 6.84182 20.4011 8.20238 18C9.56293 15.5988 10.8392 14.6275 11.4944 14.2575C11.7856 14.0931 12.1213 14.0681 12.4513 14.1133C13.5906 14.2697 16.4723 14.7024 18.8803 15.3739C20.541 14.0116 22.4099 12.9023 24.431 12.1035C25.0643 9.6444 26.1362 6.88877 26.5726 5.80609Z" fill="#FFD6B9"/>
<path d="M32 48C40.8366 48 48 40.8366 48 32C48 23.1634 40.8366 16 32 16C23.1634 16 16 23.1634 16 32C16 40.8366 23.1634 48 32 48Z" fill="#FF7C1E"/>
<path d="M34.9006 35.094C36.7056 34.0784 37.9248 32.1445 37.9248 29.9259C37.9248 26.6531 35.2716 24 31.9988 24C28.726 24 26.073 26.6531 26.073 29.9259C26.073 32.1449 27.2926 34.0789 29.0979 35.0944C26.9822 35.7391 25.2224 37.0689 24.1519 38.7873C23.8703 39.2393 23.9904 39.8007 24.4278 40.1403C26.4539 41.7137 29.1022 42.6667 32 42.6667C34.8979 42.6667 37.5462 41.7137 39.5723 40.1403C40.0096 39.8007 40.1298 39.2393 39.8482 38.7873C38.7774 37.0685 37.0171 35.7384 34.9006 35.094Z" fill="#FFD6B9"/>
</svg>
